<svg width="162" height="49" viewBox="0 0 162 49" fill="none" xmlns="http://www.w3.org/2000/svg">
<path d="M0.924065 15.7868C0.986563 14.3024 2.76261 13.1982 4.10115 13.9222C5.0074 14.318 5.3199 15.3232 5.39281 16.2295C6.9449 16.1461 8.27823 17.4951 7.99177 19.068C9.11677 19.1565 10.3043 19.8857 10.3616 21.1201C10.3876 22.8076 10.1428 24.4899 9.8824 26.1461C9.93969 26.917 8.55948 26.9847 8.56469 26.2034C8.67927 24.5055 9.10115 22.8284 9.0074 21.1201C8.90323 20.568 8.30427 20.5263 7.86156 20.4534C7.65844 22.0472 7.68448 23.667 7.43969 25.2555C7.38761 25.8909 6.24177 25.8701 6.17406 25.2138C6.22615 22.9534 6.53865 20.7086 6.61156 18.4482C6.73656 17.7399 5.8199 17.6774 5.34594 17.5836C5.29386 20.2191 5.40844 22.8597 5.31469 25.4899C5.30948 26.1774 4.08552 26.2243 4.04386 25.5211C3.92406 22.3753 4.03344 19.2243 3.97094 16.0784C4.02302 15.6253 3.71052 15.2711 3.35636 15.0472C2.70531 14.917 2.23136 15.5263 2.24698 16.1201C1.9449 20.0316 1.61156 23.943 1.35115 27.8545C1.30948 31.2711 1.91886 35.0211 4.43448 37.5368C6.70531 39.9274 9.45531 42.2295 10.0751 45.6513C10.2209 46.2503 9.3199 46.6253 8.95011 46.167C8.37198 44.9482 8.09073 43.5628 7.20531 42.5055C5.38761 40.1982 2.84594 38.4743 1.52302 35.792C0.179273 32.9118 -0.190519 29.6513 0.0855219 26.5055C0.371981 22.9326 0.632398 19.3597 0.924065 15.7868Z" fill="white"/>
<mask id="mask0_49_83" style="mask-type:luminance" maskUnits="userSpaceOnUse" x="29" y="13" width="12" height="34">
<path d="M29.1428 13.6611H40.8095V46.9945H29.1428V13.6611Z" fill="white"/>
</mask>
<g mask="url(#mask0_49_83)">
<path d="M36.1323 13.9736C37.3979 13.1871 39.2052 14.1402 39.3875 15.5882C39.6011 17.5413 39.6896 19.51 39.8615 21.4684C40.0438 24.7913 40.6688 28.1402 40.1115 31.4632C39.7729 33.4996 39.1792 35.5517 37.9396 37.2288C36.5073 39.234 34.4865 40.7131 33.0073 42.6767C32.2156 43.7079 31.95 45.01 31.4084 46.1611C31.0334 46.6246 30.1427 46.2704 30.2573 45.6715C30.4761 44.6298 30.9084 43.6454 31.3875 42.7027C33.0334 39.8642 36.0438 38.1038 37.6011 35.2027C38.8563 32.51 39.1688 29.4579 38.9084 26.5257C38.6115 22.984 38.3823 19.4371 38.0594 15.9007C38.0594 15.2809 37.4031 15.1246 36.95 14.9163C36.7625 15.2965 36.3406 15.609 36.3771 16.0725C36.3354 18.9944 36.3667 21.9163 36.3406 24.8382C36.3511 25.3434 36.3302 26.0986 35.6167 26.0465C34.9656 26.0152 34.9761 25.3121 34.9865 24.8382C34.9813 22.4215 35.0229 20.01 34.9969 17.5934C34.5125 17.6663 33.6063 17.7444 33.7313 18.4632C33.8042 20.5934 34.0698 22.7184 34.1688 24.8538C34.3771 25.5569 33.4761 25.9944 32.9761 25.5257C32.5854 23.8694 32.7313 22.135 32.4761 20.4527C32.0281 20.5204 31.424 20.5829 31.3302 21.135C31.2417 22.8381 31.6688 24.51 31.7834 26.1975C31.8042 26.8746 30.6375 26.9736 30.5073 26.3486C30.1948 24.6246 29.9604 22.859 29.9813 21.0986C30.049 19.8798 31.2261 19.1454 32.3511 19.0725C32.0594 17.4892 33.3927 16.1454 34.9448 16.2236C35.0281 15.359 35.2938 14.4007 36.1323 13.9736Z" fill="white"/>
</g>
<path d="M4.85119 26.7395C5.78869 26.2186 7.07515 26.2186 7.86682 27.0051C9.37723 28.5311 10.622 30.3072 12.1481 31.8176C13.7574 33.3332 16.0074 34.5103 16.5283 36.8488C17.1012 39.6613 17.4866 42.5155 18.0856 45.328C18.2939 45.7968 18.0283 46.3749 17.4762 46.3697C16.9397 46.3801 16.8251 45.8176 16.7366 45.4061C16.1429 42.7238 15.7939 39.9843 15.247 37.2916C14.9345 35.6561 13.471 34.7134 12.2887 33.7134C10.1949 32.1093 8.77827 29.8228 6.92932 27.9738C6.35119 27.3697 4.8564 27.8645 5.23661 28.828C6.38765 31.2707 8.00223 33.4791 9.21578 35.8957C9.42932 36.6145 8.27827 37.0051 7.98661 36.3332C6.71057 34.2499 5.50223 32.1249 4.26786 30.0155C3.61682 28.9843 3.70015 27.3801 4.85119 26.7395Z" fill="white"/>
<path d="M32.8044 26.7446C33.9815 25.9529 35.9242 26.4425 36.3929 27.8488C36.7106 28.8279 36.2367 29.8123 35.7263 30.63C34.5752 32.5207 33.5179 34.4686 32.346 36.3384C32.0492 36.9998 30.9398 36.6196 31.1117 35.9113C32.3252 33.505 33.9242 31.2967 35.0908 28.8644C35.5179 27.9061 34.0388 27.3644 33.4346 27.9529C31.57 29.7967 30.1585 32.0884 28.07 33.7029C26.9346 34.6717 25.5179 35.5623 25.1377 37.1092C24.5023 40.0467 24.2054 43.0519 23.445 45.9634C23.2679 46.6613 21.9971 46.3488 22.2106 45.6509C22.7835 42.7186 23.2315 39.7602 23.8148 36.8279C24.2315 34.9477 25.8565 33.7759 27.2575 32.6248C29.4085 30.9634 30.7679 28.5154 32.8044 26.7446Z" fill="white"/>
<path d="M51.5065 47.5241H44.9023V17.6074H51.5065V47.5241Z" fill="white"/>
<path d="M75.9666 37.3574H83.3C82.6333 39.4147 81.576 41.2428 80.1333 42.8366C78.701 44.4355 76.9979 45.6908 75.0291 46.6074C73.0708 47.5137 70.9458 47.9616 68.6541 47.9616C66.5396 47.9616 64.5552 47.5658 62.6958 46.7741C60.8312 45.9824 59.1854 44.8783 57.7583 43.4616C56.3416 42.0345 55.2375 40.3887 54.4458 38.5241C53.6541 36.6647 53.2583 34.6803 53.2583 32.5658C53.2583 30.4564 53.6541 28.472 54.4458 26.6074C55.2375 24.748 56.3416 23.1074 57.7583 21.6908C59.1854 20.2637 60.8312 19.1491 62.6958 18.3574C64.5552 17.5658 66.5396 17.1699 68.6541 17.1699C70.9458 17.1699 73.0604 17.6283 75.0083 18.5449C76.9666 19.4512 78.6593 20.6855 80.0916 22.2533C81.5343 23.8262 82.5916 25.6283 83.2583 27.6699H75.925C75.3 26.3262 74.3104 25.2637 72.9666 24.4824C71.6177 23.7064 70.1802 23.3158 68.6541 23.3158C67.0396 23.3158 65.576 23.7428 64.2583 24.5866C62.9354 25.4199 61.8885 26.5345 61.1125 27.9199C60.3312 29.3105 59.9458 30.8574 59.9458 32.5658C59.9458 34.2637 60.3312 35.8105 61.1125 37.2116C61.8885 38.6022 62.9354 39.7116 64.2583 40.5449C65.576 41.3783 67.0396 41.7949 68.6541 41.7949C70.2062 41.7949 71.6593 41.3887 73.0083 40.5658C74.3521 39.748 75.3416 38.6803 75.9666 37.3574Z" fill="white"/>
<path d="M96.2385 42.8574C96.9469 42.8574 97.7073 42.748 98.5302 42.5241C99.3479 42.3053 100.056 41.9408 100.655 41.4408C101.265 40.9303 101.572 40.2272 101.572 39.3366C101.572 38.5189 101.249 37.8574 100.614 37.3574C99.9885 36.8574 99.1604 36.4512 98.1344 36.1283C97.1031 35.8105 95.9781 35.5137 94.7594 35.2324C93.551 34.9564 92.3271 34.623 91.0927 34.2324C89.8531 33.8314 88.7229 33.3105 87.6969 32.6699C86.6812 32.0189 85.8531 31.1803 85.2177 30.1491C84.5927 29.123 84.2802 27.8158 84.2802 26.2324C84.2802 24.6803 84.5979 23.3366 85.2385 22.2116C85.8896 21.0762 86.7489 20.1387 87.8219 19.3991C88.8896 18.6491 90.0927 18.097 91.426 17.7324C92.7594 17.3574 94.0979 17.1699 95.4469 17.1699C97.4989 17.1699 99.426 17.498 101.218 18.1491C103.009 18.7897 104.468 19.8053 105.593 21.1908C106.718 22.5814 107.311 24.4199 107.384 26.7116H100.989C100.822 25.1595 100.28 24.0814 99.3635 23.4824C98.4573 22.873 97.1812 22.5658 95.5302 22.5658C94.9156 22.5658 94.2646 22.6699 93.5719 22.8783C92.8896 23.0866 92.3062 23.4199 91.8219 23.8783C91.3323 24.3366 91.0927 24.9408 91.0927 25.6908C91.0927 26.4564 91.4052 27.0605 92.0302 27.5033C92.6656 27.9512 93.4989 28.3158 94.5302 28.6074C95.5562 28.8991 96.6812 29.1803 97.9052 29.4408C99.1396 29.7064 100.369 30.0345 101.593 30.4199C102.811 30.7949 103.931 31.3158 104.947 31.9824C105.973 32.6387 106.801 33.4928 107.426 34.5449C108.061 35.6022 108.384 36.9512 108.384 38.5866C108.384 40.3522 108.03 41.8522 107.322 43.0866C106.624 44.3105 105.681 45.2949 104.489 46.0449C103.306 46.7949 101.973 47.347 100.489 47.6908C98.9989 48.0501 97.4989 48.2324 95.9885 48.2324C93.7802 48.2324 91.7177 47.8574 89.801 47.1074C87.8844 46.3574 86.3271 45.2064 85.1344 43.6491C83.9364 42.097 83.3271 40.1022 83.301 37.6699H89.9885C90.0823 39.4616 90.7437 40.7741 91.9677 41.6074C93.2021 42.4408 94.6239 42.8574 96.2385 42.8574Z" fill="white"/>
<path d="M126.205 36.0866L122.434 25.4408L118.643 36.0866H126.205ZM137.393 47.5241H130.309L128.143 41.5033H116.747L114.601 47.5241H107.518L119.643 17.6074H125.247L137.393 47.5241Z" fill="white"/>
<path d="M161.33 47.5241H154.726L144.434 28.8783V47.5241H137.83V17.6074H144.434L154.726 36.2533V17.6074H161.33V47.5241Z" fill="white"/>
<path d="M13 6H17V19L13 17V6Z" fill="white"/>
<path d="M19 3H23V18L19 20V3Z" fill="white"/>
<path d="M25 0H29V15L25 17V0Z" fill="white"/>
</svg>